<mxfile host="app.diagrams.net" modified="2022-01-16T19:21:46.527Z" agent="5.0 (Windows)" etag="JnQ_6rV43c70fLjKwNeC" version="15.5.9" type="github">
  <diagram id="FXji6WVXrqAA5cYy3U6J" name="Page-1">
    <mxGraphModel dx="782" dy="392" grid="1" gridSize="10" guides="1" tooltips="1" connect="1" arrows="1" fold="1" page="1" pageScale="1" pageWidth="850" pageHeight="1100" math="0" shadow="0">
      <root>
        <mxCell id="0" />
        <mxCell id="1" parent="0" />
        <mxCell id="m-s2n8BCU-IRSLtXHgnn-1" value="Transient Server" style="rounded=0;whiteSpace=wrap;html=1;fillColor=#dae8fc;strokeColor=#6c8ebf;" vertex="1" parent="1">
          <mxGeometry x="140" y="120" width="70" height="40" as="geometry" />
        </mxCell>
        <mxCell id="m-s2n8BCU-IRSLtXHgnn-2" value="Chat Server" style="rounded=0;whiteSpace=wrap;html=1;fillColor=#dae8fc;strokeColor=#6c8ebf;" vertex="1" parent="1">
          <mxGeometry x="440" y="120" width="70" height="40" as="geometry" />
        </mxCell>
        <mxCell id="m-s2n8BCU-IRSLtXHgnn-3" value="Transient Storage 1" style="shape=cylinder3;whiteSpace=wrap;html=1;boundedLbl=1;backgroundOutline=1;size=15;fillColor=#fff2cc;strokeColor=#d6b656;" vertex="1" parent="1">
          <mxGeometry x="300" y="20" width="60" height="80" as="geometry" />
        </mxCell>
        <mxCell id="m-s2n8BCU-IRSLtXHgnn-4" value="Transient Storage 2" style="shape=cylinder3;whiteSpace=wrap;html=1;boundedLbl=1;backgroundOutline=1;size=15;fillColor=#fff2cc;strokeColor=#d6b656;" vertex="1" parent="1">
          <mxGeometry x="300" y="200" width="60" height="80" as="geometry" />
        </mxCell>
        <mxCell id="m-s2n8BCU-IRSLtXHgnn-5" value="" style="endArrow=classic;html=1;rounded=0;exitX=0.5;exitY=0;exitDx=0;exitDy=0;entryX=0;entryY=0.5;entryDx=0;entryDy=0;entryPerimeter=0;" edge="1" parent="1" source="m-s2n8BCU-IRSLtXHgnn-1" target="m-s2n8BCU-IRSLtXHgnn-3">
          <mxGeometry width="50" height="50" relative="1" as="geometry">
            <mxPoint x="370" y="230" as="sourcePoint" />
            <mxPoint x="420" y="180" as="targetPoint" />
          </mxGeometry>
        </mxCell>
        <mxCell id="m-s2n8BCU-IRSLtXHgnn-6" value="" style="endArrow=classic;html=1;rounded=0;exitX=0.5;exitY=1;exitDx=0;exitDy=0;entryX=0;entryY=0;entryDx=0;entryDy=52.5;entryPerimeter=0;" edge="1" parent="1" source="m-s2n8BCU-IRSLtXHgnn-1" target="m-s2n8BCU-IRSLtXHgnn-4">
          <mxGeometry width="50" height="50" relative="1" as="geometry">
            <mxPoint x="185" y="130" as="sourcePoint" />
            <mxPoint x="310" y="70" as="targetPoint" />
          </mxGeometry>
        </mxCell>
        <mxCell id="m-s2n8BCU-IRSLtXHgnn-7" value="" style="endArrow=classic;html=1;rounded=0;exitX=1;exitY=0;exitDx=0;exitDy=52.5;entryX=0.5;entryY=1;entryDx=0;entryDy=0;exitPerimeter=0;" edge="1" parent="1" source="m-s2n8BCU-IRSLtXHgnn-4" target="m-s2n8BCU-IRSLtXHgnn-2">
          <mxGeometry width="50" height="50" relative="1" as="geometry">
            <mxPoint x="185" y="170" as="sourcePoint" />
            <mxPoint x="310" y="262.5" as="targetPoint" />
          </mxGeometry>
        </mxCell>
        <mxCell id="m-s2n8BCU-IRSLtXHgnn-8" value="" style="endArrow=classic;html=1;rounded=0;exitX=1;exitY=0.5;exitDx=0;exitDy=0;entryX=0.5;entryY=0;entryDx=0;entryDy=0;exitPerimeter=0;" edge="1" parent="1" source="m-s2n8BCU-IRSLtXHgnn-3" target="m-s2n8BCU-IRSLtXHgnn-2">
          <mxGeometry width="50" height="50" relative="1" as="geometry">
            <mxPoint x="195" y="180" as="sourcePoint" />
            <mxPoint x="320" y="272.5" as="targetPoint" />
          </mxGeometry>
        </mxCell>
        <mxCell id="m-s2n8BCU-IRSLtXHgnn-9" value="Alice" style="shape=umlActor;verticalLabelPosition=bottom;verticalAlign=top;html=1;outlineConnect=0;fillColor=#f5f5f5;fontColor=#333333;strokeColor=#666666;" vertex="1" parent="1">
          <mxGeometry x="680" y="100" width="30" height="60" as="geometry" />
        </mxCell>
        <mxCell id="m-s2n8BCU-IRSLtXHgnn-10" value="" style="endArrow=classic;html=1;rounded=0;exitX=1;exitY=0.5;exitDx=0;exitDy=0;" edge="1" parent="1" source="m-s2n8BCU-IRSLtXHgnn-2">
          <mxGeometry width="50" height="50" relative="1" as="geometry">
            <mxPoint x="370" y="262.5" as="sourcePoint" />
            <mxPoint x="695" y="140" as="targetPoint" />
          </mxGeometry>
        </mxCell>
        <mxCell id="m-s2n8BCU-IRSLtXHgnn-11" value="User comes online" style="text;html=1;strokeColor=none;fillColor=none;align=center;verticalAlign=middle;whiteSpace=wrap;rounded=0;" vertex="1" parent="1">
          <mxGeometry x="520" y="110" width="150" height="30" as="geometry" />
        </mxCell>
      </root>
    </mxGraphModel>
  </diagram>
</mxfile>
